<svg xmlns="http://www.w3.org/2000/svg" width="69" height="69" viewBox="0 0 69 69">
  <g id="Group_246" data-name="Group 246" transform="translate(-172 -337)">
    <g id="Group_214" data-name="Group 214" transform="translate(-1 -8)">
      <path id="Path_149" data-name="Path 149" d="M29.75,0C46.18,0,59.5,12.685,59.5,28.333S46.18,56.667,29.75,56.667,0,43.981,0,28.333,13.32,0,29.75,0Z" transform="translate(177 352)" fill="#f8d44c"/>
      <g id="Group_159" data-name="Group 159" transform="translate(191.213 365.552)">
        <g id="Union_2" data-name="Union 2" transform="translate(0 0)" fill="#101010">
          <path d="M 15.52142143249512 30.06558418273926 C 14.53256130218506 30.06558418273926 13.72806072235107 29.28872489929199 13.72806072235107 28.33383369445801 L 13.72806072235107 16.51510429382324 L 1.293361186981201 16.51510429382324 C 0.3045011758804321 16.51510429382324 -0.4999988079071045 15.73824405670166 -0.4999988079071045 14.78334426879883 C -0.4999988079071045 13.82784366607666 0.3045011758804321 13.05048370361328 1.293361186981201 13.05048370361328 L 13.72806072235107 13.05048370361328 L 13.72806072235107 1.231773972511292 C 13.72806072235107 0.2768740057945251 14.53256130218506 -0.4999960064888 15.52142143249512 -0.4999960064888 C 16.51095199584961 -0.4999960064888 17.31600189208984 0.2768740057945251 17.31600189208984 1.231773972511292 L 17.31600189208984 13.05048370361328 L 29.75052070617676 13.05048370361328 C 30.73938179016113 13.05048370361328 31.54388046264648 13.82784366607666 31.54388046264648 14.78334426879883 C 31.54388046264648 15.73824405670166 30.73938179016113 16.51510429382324 29.75052070617676 16.51510429382324 L 17.31600189208984 16.51510429382324 L 17.31600189208984 28.33383369445801 C 17.31600189208984 29.28872489929199 16.51095199584961 30.06558418273926 15.52142143249512 30.06558418273926 Z" stroke="none"/>
          <path d="M 15.52142143249512 29.56558418273926 C 16.23615074157715 29.56558418273926 16.81600189208984 29.01345443725586 16.81600189208984 28.33383369445801 L 16.81600189208984 16.01510429382324 L 29.75052070617676 16.01510429382324 C 30.46404075622559 16.01510429382324 31.04388046264648 15.46299362182617 31.04388046264648 14.78334426879883 C 31.04388046264648 14.10149383544922 30.46404075622559 13.55048370361328 29.75052070617676 13.55048370361328 L 16.81600189208984 13.55048370361328 L 16.81600189208984 1.231773972511292 C 16.81600189208984 0.5510240197181702 16.23615074157715 3.998718057118822e-06 15.52142143249512 3.998718057118822e-06 C 14.80773162841797 3.998718057118822e-06 14.22806072235107 0.5510240197181702 14.22806072235107 1.231773972511292 L 14.22806072235107 13.55048370361328 L 1.293361186981201 13.55048370361328 C 0.5796712040901184 13.55048370361328 1.184997586278769e-06 14.10149383544922 1.184997586278769e-06 14.78334426879883 C 1.184997586278769e-06 15.46299362182617 0.5796712040901184 16.01510429382324 1.293361186981201 16.01510429382324 L 14.22806072235107 16.01510429382324 L 14.22806072235107 28.33383369445801 C 14.22806072235107 29.01345443725586 14.80773162841797 29.56558418273926 15.52142143249512 29.56558418273926 M 15.52142143249512 30.56558418273926 C 14.25686073303223 30.56558418273926 13.22806072235107 29.56442451477051 13.22806072235107 28.33383369445801 L 13.22806072235107 17.01510429382324 L 1.293361186981201 17.01510429382324 C 0.02880118414759636 17.01510429382324 -0.9999988079071045 16.01394462585449 -0.9999988079071045 14.78334426879883 C -0.9999988079071045 13.55214405059814 0.02880118414759636 12.55048370361328 1.293361186981201 12.55048370361328 L 13.22806072235107 12.55048370361328 L 13.22806072235107 1.231773972511292 C 13.22806072235107 0.001173998694866896 14.25686073303223 -0.9999960064888 15.52142143249512 -0.9999960064888 C 16.78666114807129 -0.9999960064888 17.81600189208984 0.001173998694866896 17.81600189208984 1.231773972511292 L 17.81600189208984 12.55048370361328 L 29.75052070617676 12.55048370361328 C 31.01508140563965 12.55048370361328 32.04388046264648 13.55214405059814 32.04388046264648 14.78334426879883 C 32.04388046264648 16.01394462585449 31.01508140563965 17.01510429382324 29.75052070617676 17.01510429382324 L 17.81600189208984 17.01510429382324 L 17.81600189208984 28.33383369445801 C 17.81600189208984 29.56442451477051 16.78666114807129 30.56558418273926 15.52142143249512 30.56558418273926 Z" stroke="none"/>
        </g>
      </g>
    </g>
    <rect id="Rectangle_151" data-name="Rectangle 151" width="69" height="69" transform="translate(172 337)" fill="none"/>
  </g>
</svg>
