<svg xmlns="http://www.w3.org/2000/svg" width="69" height="69" viewBox="0 0 69 69">
  <g id="Group_245" data-name="Group 245" transform="translate(-742 -336)">
    <g id="Group_182" data-name="Group 182" transform="translate(742 336)">
      <g id="Group_181" data-name="Group 181">
        <g id="Group_179" data-name="Group 179" transform="translate(0 41.665)">
          <g id="Group_178" data-name="Group 178">
            <g id="Group_177" data-name="Group 177">
              <path id="Path_85" data-name="Path 85" d="M234.458,5716.833H201.3a3.316,3.316,0,0,1-3.3-3.328v-4.052a1.3,1.3,0,0,1,.676-1.141l22.138-12.151a1.3,1.3,0,0,1,1.253,2.283L200.6,5710.223v3.281a.718.718,0,0,0,.694.724h33.16a1.3,1.3,0,1,1,0,2.6Z" transform="translate(-198 -5695.999)"/>
            </g>
          </g>
        </g>
        <g id="Group_180" data-name="Group 180" transform="translate(14.323)">
          <path id="Path_86" data-name="Path 86" d="M218.117,5708.27a1.3,1.3,0,0,1-.828-.3c-8.207-6.763-8.29-18.388-8.289-18.879l.008-11.891a1.145,1.145,0,0,1,.018-.213c1.285-7.724,9.687-12.927,16.78-12.985.04,0,.081,0,.121,0,7.118,0,15.608,5.217,16.9,12.982a1.167,1.167,0,0,1,.018.213l.008,11.894c0,.491-.082,12.115-8.289,18.879a1.3,1.3,0,0,1-1.656-2.009c7.243-5.972,7.341-16.761,7.341-16.868l-.008-11.782c-1.115-6.275-8.329-10.65-14.205-10.7-.035,0-.073,0-.109,0-5.9,0-13.192,4.393-14.315,10.706L211.6,5689.1c0,.106.1,10.9,7.341,16.867a1.3,1.3,0,0,1-.828,2.307Z" transform="translate(-209 -5664)"/>
        </g>
      </g>
    </g>
    <g id="Group_185" data-name="Group 185" transform="translate(790.159 383.617)">
      <path id="Path_88" data-name="Path 88" d="M224.782,6277.721a5.859,5.859,0,1,1,5.859-5.859A5.866,5.866,0,0,1,224.782,6277.721Zm0-9.115a3.255,3.255,0,1,0,3.255,3.255A3.26,3.26,0,0,0,224.782,6268.606Z" transform="translate(-218.923 -6266.002)" fill="#f8d44c"/>
    </g>
    <g id="Group_186" data-name="Group 186" transform="translate(781.062 375.062)">
      <path id="Path_89" data-name="Path 89" d="M226.466,6289.37a2.869,2.869,0,0,1-2.781-2.387l-.236-1.544a.975.975,0,0,0-.266-.525l-.943-.373a1.213,1.213,0,0,1-.133-.064l-.139-.077-.37.277-1.236.933a2.944,2.944,0,0,1-3.665-.249l-.682-.677a2.872,2.872,0,0,1-.29-3.662l.921-1.265a1.057,1.057,0,0,0,.188-.643,5.075,5.075,0,0,0-1.051-1.26l-1.4-.176a2.819,2.819,0,0,1-2.437-2.75l0-.957a2.862,2.862,0,0,1,2.391-2.79l1.539-.231a.988.988,0,0,0,.529-.265l.382-.973a1.448,1.448,0,0,1,.069-.145l.091-.162-.272-.347-.935-1.2a2.817,2.817,0,0,1,.219-3.671l.677-.682a2.92,2.92,0,0,1,3.667-.254l1.219.928a1.019,1.019,0,0,0,.555.185,4.846,4.846,0,0,0,1.372-1.087l.182-1.417a2.828,2.828,0,0,1,2.755-2.43l.964,0a2.856,2.856,0,0,1,2.781,2.4l.223,1.529a.95.95,0,0,0,.264.522l.971.383a1.259,1.259,0,0,1,.142.067,1.235,1.235,0,0,0,.5-.2l1.229-.935a2.933,2.933,0,0,1,3.667.242l.682.677a2.844,2.844,0,0,1,.263,3.667l-.924,1.228a.994.994,0,0,0-.184.618,5.207,5.207,0,0,0,1.079,1.3l1.411.185a2.835,2.835,0,0,1,2.43,2.757l0,.96a2.865,2.865,0,0,1-2.387,2.79l-1.546.237a1,1,0,0,0-.527.263l-.372.948a1.382,1.382,0,0,1-.068.142,1.307,1.307,0,0,0,.194.5l.936,1.225a2.845,2.845,0,0,1-.24,3.666l-.68.684a2.955,2.955,0,0,1-3.661.284l-1.253-.921a1.1,1.1,0,0,0-.583-.193,4.64,4.64,0,0,0-1.307,1.06l-.189,1.42a2.836,2.836,0,0,1-2.759,2.424l-.958,0Zm-2.383-6.892a3.255,3.255,0,0,1,1.94,2.566l.236,1.544a.286.286,0,0,0,.207.177l.958,0a.256.256,0,0,0,.188-.164l.2-1.521c.217-1.634,2.689-2.949,2.713-2.962a3.428,3.428,0,0,1,3.288.441l1.253.92c.2.023.255,0,.271-.02l.68-.684a.261.261,0,0,0,.016-.251l-.935-1.225a3.252,3.252,0,0,1-.447-3.258l.331-.816a3.248,3.248,0,0,1,2.564-1.934l1.546-.238a.287.287,0,0,0,.178-.208l0-.96a.253.253,0,0,0-.161-.183l-1.518-.2c-1.618-.212-2.966-2.719-2.979-2.744a3.311,3.311,0,0,1,.445-3.31l.924-1.229a.258.258,0,0,0-.018-.251l-.682-.677a.225.225,0,0,0-.146-.043l-1.336.96a3.33,3.33,0,0,1-3.251.449l-.828-.336a3.248,3.248,0,0,1-1.953-2.586l-.223-1.53a.268.268,0,0,0-.2-.169l-.964,0a.247.247,0,0,0-.181.159l-.2,1.525c-.211,1.639-2.727,2.97-2.751,2.983a3.389,3.389,0,0,1-3.322-.448l-1.219-.93c-.177-.021-.228.005-.242.019l-.678.682a.237.237,0,0,0-.013.231l.935,1.2c1.135,1.453,1.309,1.675.941,2.413h0s-.22.4-.5.9l-.331.82a3.254,3.254,0,0,1-2.574,1.938l-1.539.232a.286.286,0,0,0-.174.2l0,.959a.242.242,0,0,0,.154.174l1.512.188c1.638.2,2.961,2.7,2.973,2.72a3.385,3.385,0,0,1-.432,3.292l-.922,1.262a.282.282,0,0,0,.022.277l.682.677a.241.241,0,0,0,.152.044l1.346-.957c1.387-1.046,1.387-1.046,1.827-1.046a1.3,1.3,0,0,1,.586.14s.378.206.85.465Z" transform="translate(-211.936 -6259.432)" fill="#f8d44c"/>
    </g>
    <rect id="Rectangle_154" data-name="Rectangle 154" width="69" height="69" transform="translate(742 336)" fill="none"/>
  </g>
</svg>
