<svg xmlns="http://www.w3.org/2000/svg" width="20.499" height="20.25" viewBox="0 0 20.499 20.25">
  <g id="Group_252" data-name="Group 252" transform="translate(-80.578 -47)">
    <path id="home" d="M19.717,8.589l0,0L11.659.532a1.818,1.818,0,0,0-2.571,0L1.036,8.584l-.008.008a1.817,1.817,0,0,0,1.21,3.1l.056,0h.321v5.929a2.13,2.13,0,0,0,2.128,2.128H7.895a.579.579,0,0,0,.579-.579V14.522a.972.972,0,0,1,.971-.971H11.3a.972.972,0,0,1,.971.971V19.17a.579.579,0,0,0,.579.579H16a2.13,2.13,0,0,0,2.128-2.128V11.693h.3a1.818,1.818,0,0,0,1.287-3.1Z" transform="translate(80.454 47.251)" fill="#fff"/>
    <path id="home-2" data-name="home" d="M19.717,8.589l0,0L11.659.532a1.818,1.818,0,0,0-2.571,0L1.036,8.584l-.008.008a1.817,1.817,0,0,0,1.21,3.1l.056,0h.321v5.929a2.13,2.13,0,0,0,2.128,2.128H7.895a.579.579,0,0,0,.579-.579V14.522a.972.972,0,0,1,.971-.971H11.3a.972.972,0,0,1,.971.971V19.17a.579.579,0,0,0,.579.579H16a2.13,2.13,0,0,0,2.128-2.128V11.693h.3a1.818,1.818,0,0,0,1.287-3.1ZM18.9,10.342a.657.657,0,0,1-.467.194h-.876a.579.579,0,0,0-.579.579v6.507a.972.972,0,0,1-.971.971H13.431v-4.07A2.13,2.13,0,0,0,11.3,12.394H9.444a2.131,2.131,0,0,0-2.128,2.128v4.07H4.743a.972.972,0,0,1-.971-.971V11.114a.579.579,0,0,0-.579-.579H2.3A.66.66,0,0,1,1.85,9.407h0L9.907,1.35a.661.661,0,0,1,.935,0L18.9,9.4l0,0a.662.662,0,0,1,0,.934Zm0,0" transform="translate(80.454 47.251)" fill="#004a8b" stroke="#004a8b" stroke-linejoin="round" stroke-width="0.5"/>
  </g>
</svg>
