<svg xmlns="http://www.w3.org/2000/svg" width="20.5" height="21.5" viewBox="0 0 20.5 21.5">
  <g id="Group_250" data-name="Group 250" transform="translate(-300 -46)">
    <g id="Union_4" data-name="Union 4" transform="translate(-2485.167 488.192)" fill="#fff">
      <path d="M 2803.52099609375 -421.4418029785156 L 2801.5849609375 -421.4418029785156 C 2800.93017578125 -421.4418029785156 2800.379150390625 -421.9200134277344 2800.22998046875 -422.5626525878906 C 2800.08056640625 -421.9200134277344 2799.52978515625 -421.4418029785156 2798.875 -421.4418029785156 L 2796.938720703125 -421.4418029785156 C 2796.283935546875 -421.4418029785156 2795.73291015625 -421.9195556640625 2795.5830078125 -422.5617065429688 C 2795.433349609375 -421.9195556640625 2794.88232421875 -421.4418029785156 2794.2275390625 -421.4418029785156 L 2792.292236328125 -421.4418029785156 C 2791.637451171875 -421.4418029785156 2791.086669921875 -421.9193115234375 2790.936767578125 -422.5611572265625 C 2790.786865234375 -421.9193115234375 2790.236083984375 -421.4418029785156 2789.581298828125 -421.4418029785156 L 2787.645263671875 -421.4418029785156 C 2786.876220703125 -421.4418029785156 2786.25048828125 -422.1016540527344 2786.25048828125 -422.9127197265625 L 2786.25048828125 -426.5154113769531 C 2786.25048828125 -427.3259887695313 2786.876220703125 -427.9854125976563 2787.645263671875 -427.9854125976563 L 2789.581298828125 -427.9854125976563 C 2790.18701171875 -427.9854125976563 2790.703857421875 -427.5769958496094 2790.896484375 -427.0079040527344 L 2790.896484375 -430.1181030273438 C 2790.896484375 -430.9286804199219 2791.522705078125 -431.5881042480469 2792.292236328125 -431.5881042480469 L 2794.2275390625 -431.5881042480469 C 2794.9970703125 -431.5881042480469 2795.623291015625 -430.9286804199219 2795.623291015625 -430.1181030273438 L 2795.623291015625 -429.1689758300781 C 2795.81591796875 -429.7384033203125 2796.332763671875 -430.147216796875 2796.938720703125 -430.147216796875 L 2798.875 -430.147216796875 C 2799.48095703125 -430.147216796875 2799.997802734375 -429.7378234863281 2800.18994140625 -429.1676940917969 L 2800.18994140625 -432.2799072265625 C 2800.18994140625 -433.0904541015625 2800.815673828125 -433.7499084472656 2801.5849609375 -433.7499084472656 L 2803.52099609375 -433.7499084472656 C 2804.29052734375 -433.7499084472656 2804.916748046875 -433.0904541015625 2804.916748046875 -432.2799072265625 L 2804.916748046875 -422.9127197265625 C 2804.916748046875 -422.1016540527344 2804.29052734375 -421.4418029785156 2803.52099609375 -421.4418029785156 Z" stroke="none"/>
      <path d="M 2803.52099609375 -422.1918029785156 C 2803.878173828125 -422.1918029785156 2804.166748046875 -422.5149230957031 2804.166748046875 -422.9127197265625 L 2804.166748046875 -432.2799072265625 C 2804.166748046875 -432.6768188476563 2803.878173828125 -432.9999084472656 2803.52099609375 -432.9999084472656 L 2801.5849609375 -432.9999084472656 C 2801.228515625 -432.9999084472656 2800.93994140625 -432.6768188476563 2800.93994140625 -432.2799072265625 L 2800.93994140625 -422.9127197265625 C 2800.93994140625 -422.5149230957031 2801.228515625 -422.1918029785156 2801.5849609375 -422.1918029785156 L 2803.52099609375 -422.1918029785156 M 2798.875 -422.1918029785156 C 2799.231689453125 -422.1918029785156 2799.519775390625 -422.5149230957031 2799.519775390625 -422.9127197265625 L 2799.519775390625 -428.6772155761719 C 2799.519775390625 -429.0750122070313 2799.231689453125 -429.397216796875 2798.875 -429.397216796875 L 2796.938720703125 -429.397216796875 C 2796.58251953125 -429.397216796875 2796.29296875 -429.0750122070313 2796.29296875 -428.6772155761719 L 2796.29296875 -422.9127197265625 C 2796.29296875 -422.5149230957031 2796.58251953125 -422.1918029785156 2796.938720703125 -422.1918029785156 L 2798.875 -422.1918029785156 M 2794.2275390625 -422.1918029785156 C 2794.584716796875 -422.1918029785156 2794.873291015625 -422.5149230957031 2794.873291015625 -422.9127197265625 L 2794.873291015625 -430.1181030273438 C 2794.873291015625 -430.5158996582031 2794.584716796875 -430.8381042480469 2794.2275390625 -430.8381042480469 L 2792.292236328125 -430.8381042480469 C 2791.93505859375 -430.8381042480469 2791.646484375 -430.5158996582031 2791.646484375 -430.1181030273438 L 2791.646484375 -422.9127197265625 C 2791.646484375 -422.5149230957031 2791.93505859375 -422.1918029785156 2792.292236328125 -422.1918029785156 L 2794.2275390625 -422.1918029785156 M 2789.581298828125 -422.1918029785156 C 2789.9384765625 -422.1918029785156 2790.22705078125 -422.5149230957031 2790.22705078125 -422.9127197265625 L 2790.22705078125 -426.5154113769531 C 2790.22705078125 -426.9132080078125 2789.9384765625 -427.2354125976563 2789.581298828125 -427.2354125976563 L 2787.645263671875 -427.2354125976563 C 2787.2880859375 -427.2354125976563 2787.00048828125 -426.9132080078125 2787.00048828125 -426.5154113769531 L 2787.00048828125 -422.9127197265625 C 2787.00048828125 -422.5149230957031 2787.2880859375 -422.1918029785156 2787.645263671875 -422.1918029785156 L 2789.581298828125 -422.1918029785156 M 2803.52099609375 -420.6918029785156 L 2801.5849609375 -420.6918029785156 C 2801.071533203125 -420.6918029785156 2800.599609375 -420.8795776367188 2800.22998046875 -421.1922912597656 C 2799.8603515625 -420.8795776367188 2799.388427734375 -420.6918029785156 2798.875 -420.6918029785156 L 2796.938720703125 -420.6918029785156 C 2796.425048828125 -420.6918029785156 2795.952880859375 -420.879638671875 2795.5830078125 -421.1923522949219 C 2795.21337890625 -420.879638671875 2794.7412109375 -420.6918029785156 2794.2275390625 -420.6918029785156 L 2792.292236328125 -420.6918029785156 C 2791.778564453125 -420.6918029785156 2791.306640625 -420.8796081542969 2790.936767578125 -421.1922302246094 C 2790.56689453125 -420.8796081542969 2790.094970703125 -420.6918029785156 2789.581298828125 -420.6918029785156 L 2787.645263671875 -420.6918029785156 C 2786.462646484375 -420.6918029785156 2785.50048828125 -421.6881103515625 2785.50048828125 -422.9127197265625 L 2785.50048828125 -426.5154113769531 C 2785.50048828125 -427.7395324707031 2786.462646484375 -428.7354125976563 2787.645263671875 -428.7354125976563 L 2789.581298828125 -428.7354125976563 C 2789.77685546875 -428.7354125976563 2789.96630859375 -428.7082214355469 2790.146484375 -428.6572875976563 L 2790.146484375 -430.1181030273438 C 2790.146484375 -431.3422241210938 2791.109130859375 -432.3381042480469 2792.292236328125 -432.3381042480469 L 2794.2275390625 -432.3381042480469 C 2795.18505859375 -432.3381042480469 2795.998291015625 -431.6856994628906 2796.2734375 -430.7880249023438 C 2796.48291015625 -430.85888671875 2796.70654296875 -430.897216796875 2796.938720703125 -430.897216796875 L 2798.875 -430.897216796875 C 2799.070556640625 -430.897216796875 2799.259765625 -430.8700256347656 2799.43994140625 -430.8190612792969 L 2799.43994140625 -432.2799072265625 C 2799.43994140625 -433.5040283203125 2800.402099609375 -434.4999084472656 2801.5849609375 -434.4999084472656 L 2803.52099609375 -434.4999084472656 C 2804.7041015625 -434.4999084472656 2805.666748046875 -433.5040283203125 2805.666748046875 -432.2799072265625 L 2805.666748046875 -422.9127197265625 C 2805.666748046875 -421.6881103515625 2804.7041015625 -420.6918029785156 2803.52099609375 -420.6918029785156 Z" stroke="none" fill="#004a8b"/>
    </g>
    <path id="Path_63" data-name="Path 63" d="M2051.936,2246.515a.835.835,0,0,0-.769-.515h-3.333a.833.833,0,1,0,0,1.667h1.322l-4.717,4.717-3.584-2.867a.833.833,0,0,0-1.11.062l-7.5,7.5a.833.833,0,1,0,1.178,1.178l6.972-6.972,3.584,2.867a.833.833,0,0,0,1.11-.062l5.244-5.244v1.322a.833.833,0,1,0,1.667,0v-3.333A.828.828,0,0,0,2051.936,2246.515Z" transform="translate(-1732 -2200)" fill="#004a8b"/>
  </g>
</svg>
