<svg xmlns="http://www.w3.org/2000/svg" xmlns:xlink="http://www.w3.org/1999/xlink" width="116" height="69" viewBox="0 0 116 69">
  <defs>
    <clipPath id="clip-path">
      <rect width="115.775" height="16.184" fill="none"/>
    </clipPath>
  </defs>
  <g id="Group_243" data-name="Group 243" transform="translate(-338 -339)">
    <g id="Repeat_Grid_3" data-name="Repeat Grid 3" transform="translate(338.011 358.316)" clip-path="url(#clip-path)">
      <g transform="translate(-344.5 -392.5)">
        <line id="Line_91" data-name="Line 91" y2="9" transform="translate(346.5 394.5)" fill="none" stroke="#f8d44c" stroke-linecap="round" stroke-width="4"/>
      </g>
      <g transform="translate(-336.5 -392.5)">
        <line id="Line_91-2" data-name="Line 91" y2="9" transform="translate(346.5 394.5)" fill="none" stroke="#f8d44c" stroke-linecap="round" stroke-width="4"/>
      </g>
      <g transform="translate(-328.5 -392.5)">
        <line id="Line_91-3" data-name="Line 91" y2="9" transform="translate(346.5 394.5)" fill="none" stroke="#f8d44c" stroke-linecap="round" stroke-width="4"/>
      </g>
      <g transform="translate(-320.5 -392.5)">
        <line id="Line_91-4" data-name="Line 91" y2="9" transform="translate(346.5 394.5)" fill="none" stroke="#f8d44c" stroke-linecap="round" stroke-width="4"/>
      </g>
      <g transform="translate(-312.5 -392.5)">
        <line id="Line_91-5" data-name="Line 91" y2="9" transform="translate(346.5 394.5)" fill="none" stroke="#f8d44c" stroke-linecap="round" stroke-width="4"/>
      </g>
      <g transform="translate(-304.5 -392.5)">
        <line id="Line_91-6" data-name="Line 91" y2="9" transform="translate(346.5 394.5)" fill="none" stroke="#f8d44c" stroke-linecap="round" stroke-width="4"/>
      </g>
      <g transform="translate(-296.5 -392.5)">
        <line id="Line_91-7" data-name="Line 91" y2="9" transform="translate(346.5 394.5)" fill="none" stroke="#f8d44c" stroke-linecap="round" stroke-width="4"/>
      </g>
      <g transform="translate(-288.5 -392.5)">
        <line id="Line_91-8" data-name="Line 91" y2="9" transform="translate(346.5 394.5)" fill="none" stroke="#f8d44c" stroke-linecap="round" stroke-width="4"/>
      </g>
      <g transform="translate(-280.5 -392.5)">
        <line id="Line_91-9" data-name="Line 91" y2="9" transform="translate(346.5 394.5)" fill="none" stroke="#f8d44c" stroke-linecap="round" stroke-width="4"/>
      </g>
      <g transform="translate(-272.5 -392.5)">
        <line id="Line_91-10" data-name="Line 91" y2="9" transform="translate(346.5 394.5)" fill="none" stroke="#f8d44c" stroke-linecap="round" stroke-width="4"/>
      </g>
      <g transform="translate(-264.5 -392.5)">
        <line id="Line_91-11" data-name="Line 91" y2="9" transform="translate(346.5 394.5)" fill="none" stroke="#f8d44c" stroke-linecap="round" stroke-width="4"/>
      </g>
      <g transform="translate(-256.5 -392.5)">
        <line id="Line_91-12" data-name="Line 91" y2="9" transform="translate(346.5 394.5)" fill="none" stroke="#f8d44c" stroke-linecap="round" stroke-width="4"/>
      </g>
      <g transform="translate(-248.5 -392.5)">
        <line id="Line_91-13" data-name="Line 91" y2="9" transform="translate(346.5 394.5)" fill="none" stroke="#f8d44c" stroke-linecap="round" stroke-width="4"/>
      </g>
      <g transform="translate(-240.5 -392.5)">
        <line id="Line_91-14" data-name="Line 91" y2="9" transform="translate(346.5 394.5)" fill="none" stroke="#f8d44c" stroke-linecap="round" stroke-width="4"/>
      </g>
      <g transform="translate(-232.5 -392.5)">
        <line id="Line_91-15" data-name="Line 91" y2="9" transform="translate(346.5 394.5)" fill="none" stroke="#f8d44c" stroke-linecap="round" stroke-width="4"/>
      </g>
    </g>
    <ellipse id="Ellipse_6" data-name="Ellipse 6" cx="22.5" cy="23" rx="22.5" ry="23" transform="translate(373 344)" fill="#fff"/>
    <g id="Group_162" data-name="Group 162" transform="translate(372.245 344)">
      <g id="Group_160" data-name="Group 160" transform="translate(0 0)">
        <path id="Path_75" data-name="Path 75" d="M318.875,1017.75a22.875,22.875,0,1,1,22.877-22.875A22.9,22.9,0,0,1,318.875,1017.75Zm0-43.208a20.333,20.333,0,1,0,20.336,20.333A20.356,20.356,0,0,0,318.875,974.542Z" transform="translate(-296 -972)" stroke="#000" stroke-width="1"/>
      </g>
      <g id="Group_161" data-name="Group 161" transform="translate(37.025 37.023)">
        <path id="Path_76" data-name="Path 76" d="M347.838,1025.11a1.267,1.267,0,0,1-.9-.372L325.507,1003.3a1.271,1.271,0,1,1,1.8-1.8l21.432,21.435a1.271,1.271,0,0,1-.9,2.169Z" transform="translate(-325.135 -1001.133)" stroke="#000" stroke-width="1"/>
      </g>
    </g>
    <g id="Group_209" data-name="Group 209" transform="translate(380.804 356.2)">
      <path id="Union_3" data-name="Union 3" d="M24.75,20a3,3,0,0,1-3-3V3a3,3,0,0,1,3-3H26a3,3,0,0,1,3,3V17a3,3,0,0,1-3,3ZM13.875,20a3,3,0,0,1-3-3V3a3,3,0,0,1,3-3h1.25a3,3,0,0,1,3,3V17a3,3,0,0,1-3,3ZM3,20a3,3,0,0,1-3-3V3A3,3,0,0,1,3,0h.042a3,3,0,0,1,3,3V17a3,3,0,0,1-3,3Z" transform="translate(0.196 -0.2)" fill="#f8d44c"/>
    </g>
    <rect id="Rectangle_152" data-name="Rectangle 152" width="116" height="69" transform="translate(338 339)" fill="none"/>
  </g>
</svg>
